<svg id="Capa_1" data-name="Capa 1" xmlns="http://www.w3.org/2000/svg" xmlns:xlink="http://www.w3.org/1999/xlink" viewBox="0 0 166.73 149.98"><defs><style>.cls-1,.cls-10,.cls-13,.cls-3,.cls-8{fill:none;}.cls-2{clip-path:url(#clip-path);}.cls-10,.cls-13,.cls-3,.cls-8{stroke:#000;stroke-linecap:round;stroke-linejoin:round;}.cls-3{stroke-width:4px;}.cls-4{clip-path:url(#clip-path-2);}.cls-5{clip-path:url(#clip-path-3);}.cls-6{clip-path:url(#clip-path-4);}.cls-7{clip-path:url(#clip-path-5);}.cls-8{stroke-width:5px;}.cls-9{clip-path:url(#clip-path-6);}.cls-10{stroke-width:3px;}.cls-11{clip-path:url(#clip-path-7);}.cls-12{clip-path:url(#clip-path-8);}.cls-13{stroke-width:6px;}@keyframes logo_animacion {
        
        100% {
            stroke-dashoffset: 0;
        }
        
    }
    
    #trazo_1 {
        
        stroke-dasharray: 150;
        stroke-dashoffset: 150;
        animation: logo_animacion .3s ease-in-out forwards;
        
    }
    
    #trazo_2 {
        
        stroke-dasharray: 130;
        stroke-dashoffset: -130;
        animation: logo_animacion .3s ease-in-out forwards .2s;
        
    }
    
    #trazo_3 {
        
        stroke-dasharray: 80;
        stroke-dashoffset: -80;
        animation: logo_animacion .3s ease-in-out forwards .4s;
        
    }
    
    #trazo_4 {
        
        stroke-dasharray: 90;
        stroke-dashoffset: -90;
        animation: logo_animacion .3s ease-in-out forwards .6s;
        
    }
    
    #trazo_5 {
        
        stroke-dasharray: 150;
        stroke-dashoffset: 150;
        animation: logo_animacion .3s ease-out forwards .8s;
        
    }
    
    #trazo_6 {
        
        stroke-dasharray: 80;
        stroke-dashoffset: -80;
        animation: logo_animacion .3s ease-in-out forwards 1s;
        
    }
    
    #trazo_7 {
        
        stroke-dasharray: 110;
        stroke-dashoffset: 110;
        animation: logo_animacion .3s ease-in forwards 1.2s;
        
    }
    
    #trazo_8 {
        
        stroke-dasharray: 30;
        stroke-dashoffset: -30;
        animation: logo_animacion .3s ease-in-out forwards 1.4s;
        
    }</style><clipPath id="clip-path" transform="translate(-253.99 -419.38)"><path id="s_2" class="cls-1" d="M400.11,507.57l-1.67-1,.72-.81c1.57-1.67,3-3.15,4.63-4.62,1.2-1.1,12.5-10.9,13.7-10.9l.2-.1c.4,0,.5.3.5.6a2.31,2.31,0,0,1-.6,1.4c-.5,0-7.38,5.48-16.66,14.56Z"/></clipPath><clipPath id="clip-path-2" transform="translate(-253.99 -419.38)"><path id="s_1" class="cls-1" d="M399.09,505.81m1,1.76-.84.95c-7.09,7.5-10.38,14.59-10.38,18.29a3.62,3.62,0,0,0,1.7,3.4,6.35,6.35,0,0,0,2,.5l1.2-.1c3.6-.6,8-3.6,10.8-8.7a8.24,8.24,0,0,0,1.2-4.5c0-3-1.8-6-6.48-8.89l-1.76-1c-8.77-4.39-10.76-7.29-11.06-12.08,0-8,12.2-14,15.9-14a2.36,2.36,0,0,1,2.2,1.6s-.5,1.21-.9,1.21L403,484c-2.4,0-12.8,5.3-12.8,12,.2,4.1,3.7,6.8,8.8,9.7,1,.49,2,1.06,2,1.06,5.43,3.58,7.71,7.36,7.71,11a11.35,11.35,0,0,1-1.2,4.8l-.1.1c-3.6,6.7-10.3,10-14.5,10a7.32,7.32,0,0,1-2.2-.3c-2.8-1.1-3.6-2.8-3.7-5.5,0-3.8,3.19-11.58,10.57-19.38l.88-1Zm.75-.84"/></clipPath><clipPath id="clip-path-3" transform="translate(-253.99 -419.38)"><path id="p_4" class="cls-1" d="M340.76,523m-.91-1.33-3.22,1.22c.19-1.22,1.24-3,3.91-5.46l.09-.07,1.48-1.11a33.27,33.27,0,0,1,3.28-1.93l.11-.07c3.18-1.77,7.14-3.36,11.39-5.23l2.81-1.18,6.07-2.7c8.58-4,17.21-8.72,23-14.92a1.45,1.45,0,0,1,1-.41,1.52,1.52,0,0,1,.7.31s.5.6.5.89a.9.9,0,0,1-.4.8c-7.06,7.66-18,12.94-27.91,17.42l-.19.09-6,2.6-.48.2a93,93,0,0,0-11.37,5.44A33.06,33.06,0,0,0,341.2,520a9,9,0,0,0-1.14,1.2,3.21,3.21,0,0,0-.21.27s-1.39,1.71-.26,1.88h1.1a5.8,5.8,0,0,0,1.11-.34l.84,2.29a7.81,7.81,0,0,1-2.45.45h-.8C336.19,525.47,336.63,522.88,336.63,522.88Zm3,.47,4.7-5.28"/></clipPath><clipPath id="clip-path-4" transform="translate(-253.99 -419.38)"><path id="p_2" class="cls-1" d="M342.64,525.26l.34-.12a29,29,0,0,0,6.61-3.73l1.5-1.1a80.4,80.4,0,0,0,11.24-10.82l.16-.18,2.9-4c3.8-5.6,5.5-10.7,5.7-14.7l.1-1c0-4.31-1.9-7.31-4.7-8.21a5.82,5.82,0,0,0-1.9-.3c-2.6,0-5.7,1.5-8.9,5.11-4.66,5.15-9.52,14.53-13.3,29.51l-1,4.35-.67,3,0,.17-.47,2.43-.36,1.88c-.38,2.25-.75,4.54-1.09,6.94,0,0-2.18,15.34-2.18,26.33a.93.93,0,0,0,1,.87c1-.06,1-1.3,1-1.3a264.59,264.59,0,0,1,4-34.91l0-.2.65-3.1.08-.39.83-3.82,1-4c3.58-13.14,7.93-21.5,12.08-26.15,1.4-1.39,4-4.09,6.3-4.09a2.75,2.75,0,0,1,2.2,1.19,6.78,6.78,0,0,1,1.4,4.2l.1.7a21.34,21.34,0,0,1-1.1,6.11,37.77,37.77,0,0,1-6.16,11.61l-3.64,4.39-.39.4c-3.72,3.85-8.59,8-12.32,9.81l-.28.14a17.54,17.54,0,0,1-1.7.71Z"/></clipPath><clipPath id="clip-path-5" transform="translate(-253.99 -419.38)"><path id="p_1" class="cls-1" d="M338.69,560.77v.14a1.92,1.92,0,0,1-1.8,1.3,2.48,2.48,0,0,1-2-1.5c-.1-.9-.3-2.6-.4-5.5l-.1-8.2v-4.7a309.51,309.51,0,0,1,3.2-33.1c1.5-9.3,3.1-18.1,4.9-23.61a1.85,1.85,0,0,1-.2-.7,3.66,3.66,0,0,1,2-3.3,2.66,2.66,0,0,1,1.2-.3,2.48,2.48,0,0,1,1.4.8,2,2,0,0,1,.2,1.11l-.2,1c-1.9,5-3.9,14.6-5.5,25.1-.39,2.6-.77,5.29-1.07,8l-1,8.74c-.32,3.17-.57,6.2-.76,9.05A218.43,218.43,0,0,0,338.69,560.77Zm1.16-39.11"/></clipPath><clipPath id="clip-path-6" transform="translate(-253.99 -419.38)"><path id="k_3" class="cls-1" d="M264,535.69c1.83-.89,4.52-2.07,11.85-5L281,529a100.39,100.39,0,0,1,26.24-3.53,103.09,103.09,0,0,1,23.2,2.6,1.11,1.11,0,0,1,.9,1.2,1.27,1.27,0,0,1-1.4,1.2,97.42,97.42,0,0,0-49.13,1.15l-5,1.67A81.39,81.39,0,0,0,263.09,539a4.13,4.13,0,0,1-1.9.6,1.51,1.51,0,0,1-1.21-.36c-.86-1.1,1.84-2.53,3.08-3.11Z"/></clipPath><clipPath id="clip-path-7" transform="translate(-253.99 -419.38)"><path id="k_2" class="cls-1" d="M260.22,539.41a1.22,1.22,0,0,1-.63-1.2q0-4.34,17.6-28.07l5.49-7.42.61-.82,18.8-25.1c9.9-13,18.4-24.3,25.4-34a1.28,1.28,0,0,1,1-.4c.8,0,1.2.3,1.2,1a6.46,6.46,0,0,1-.3,2.2c-1.2,3.1-2.5,5.1-4.1,5.8L281.9,510.55l-5.61,7.6-12.92,17.54-.53.71-.69,1.07-.55,1S260.93,539.77,260.22,539.41Z"/></clipPath><clipPath id="clip-path-8" transform="translate(-253.99 -419.38)"><path id="k_1" class="cls-1" d="M276.78,560.05a135.76,135.76,0,0,1-.89-17.34c0-1.45,0-2.94.06-4.46l.15-8c.1-3.69.3-7.58.59-11.55v-.58l.61-8.27c1.5-19.84,3.6-38.1,6.39-54.66a108.61,108.61,0,0,1,4.2-17.5c2.7-8.7,5.8-13.7,9.5-15.1l.4-.1a.6.6,0,0,1,.4.1c.1.1.2.1.3.2.7.2,1,.8,1,1.7,0,1.3-1.1,2.8-3.2,4.6l-1.5,1.2q-6.45,18.75-10.4,53.41c-.72,5.64-2,19-2,19l-.65,8.16c-.34,4.4-.62,7.93-.8,11.17-.1,1.67-.21,4-.28,6.75l-.12,3.18c-.3,7.4-.49,14.32-.49,20.84,0,3.3.1,6.6.2,9.7a1.31,1.31,0,0,1-1,1.4,2.16,2.16,0,0,1-1.8-.6,3.34,3.34,0,0,1-.42-1.38Z"/></clipPath></defs><title>logo_kapaso_28_prueba</title><g class="cls-2"><polyline id="trazo_8" class="cls-3" points="164.73 71.23 163.57 71.51 162.92 71.77 161.31 72.89 159.07 74.65 155.95 77.36 152.42 80.36 145.29 87.01"/></g><g class="cls-4"><polyline id="trazo_7" class="cls-3" points="150.97 64.93 149.37 63.48 148.72 63.39 147.34 63.59 145.04 64.39 142.42 65.71 139.98 67.21 137.84 69.06 136.39 70.74 135.01 72.65 134.31 74.86 134.25 76.45 134.42 77.83 134.92 79.3 135.66 80.59 137.7 82.39 140.2 83.98 142.31 85.2 143.47 85.83 144.49 86.33 145.8 87.09 147.18 87.94 148.23 88.7 150.17 90.54 151.31 92.86 152.04 94.18 152.81 96.15 153.04 97.8 153.04 98.98 152.81 100.48 152.13 102.33 150.16 105.33 147.89 107.86 146.04 109.39 143.89 110.68 141.48 111.68 139.66 112.09 138.22 112.18 136.98 112.04 135.98 111.65 135.07 111.01 134.37 110.12 133.84 108.92 133.69 107.62 133.81 105.77 134.34 103.68 135.31 101.27 136.48 98.92 138.42 95.68 140.07 93.33 141.89 91.04 145.33 87.35"/></g><g id="p_3_mascara"><g class="cls-5"><polyline id="trazo_6" class="cls-3" points="137.66 68.98 136.27 70.6 133.37 73.7 129.01 77.21 125.01 79.92 120.31 82.62 112.54 86.56 106.65 89.13 103.48 90.51 95.13 94.15 90.54 96.45 86.31 99.45 84.27 101.15 83.89 103.51 84.69 104.89 86.31 104.98 89.72 103.81"/></g></g><g id="p_2_mascara"><g class="cls-6"><polyline id="trazo_5" class="cls-3" points="83.31 143.59 83.31 136.89 83.51 132.68 83.92 127.59 84.42 122.42 85.31 115.18 85.55 113.03 85.96 109.58 86.63 105.83 87.35 102.31 88.81 96.47 89.57 94.24 90.92 90.06 92.19 86.56 95.72 77.98 98.89 72.06 102.27 67.39 106.04 64.2 108.47 63.15 110.28 62.89 112.31 63.51 113.54 64.65 114.51 66.51 115.13 68.89 115.13 71.01 114.69 74.36 112.75 79.55 108.72 86.54 108.47 86.98 103.13 93.42 99.51 96.95 93.95 101.45 91.64 102.93 89 104.29 87.24 105"/></g></g><g id="p_1_mascara"><g class="cls-7"><path id="trazo_4" class="cls-8" d="M336.74,563.78l-.53-8.19-.09-8.83.09-5.47.44-9.44.88-8.67s.53-4.92,1.57-13,3.28-17.56,3.28-17.56l1.68-6.71,1.69-6.57" transform="translate(-253.99 -419.38)"/></g></g><g id="k_3_mascara"><g class="cls-9"><path id="trazo_3" class="cls-10" d="M331.71,529.65s-6.71-1.33-13-2.39-17.5-.48-17.5-.48l-6,.63-4,.47-6.09,1.3-5.41,1.4-6,2-5.53,2.36-5.43,2.71-6.05,3.94" transform="translate(-253.99 -419.38)"/></g></g><g id="k_2_mascara"><g class="cls-11"><polyline id="trazo_2" class="cls-8" points="2.5 122.04 22.47 94.91 71.01 29.45 76.13 22.62"/></g></g><g id="k_1_mascara"><g class="cls-12"><polyline id="trazo_1" class="cls-13" points="45.72 3 40.54 7.68 38.78 10.04 37.01 14.86 34.66 22.98 32.31 33.33 29.84 48.74 27.6 66.39 25.72 86.04 24.31 107.41 23.72 127.09 24.16 138.06 24.95 146.98"/></g></g></svg>